<?xml version="1.0" encoding="UTF-8"?>
<svg version="1.1" xmlns="http://www.w3.org/2000/svg" width="350" height="349">
<path d="M0 0 C0.60440918 0.31694824 1.20881836 0.63389648 1.83154297 0.96044922 C16.23938385 8.54373027 28.30200199 18.77251786 40 30 C40.55324951 30.52770996 41.10649902 31.05541992 41.67651367 31.59912109 C46.01423279 35.82009001 49.79275724 40.29783423 53.4375 45.125 C54.00315674 45.87362305 54.56881348 46.62224609 55.15161133 47.39355469 C74.69649286 73.55771061 88.88192997 106.92882482 89.23828125 140.00390625 C89.2480751 140.7558728 89.25786896 141.50783936 89.26795959 142.28259277 C89.43979249 158.90429781 89.25676859 174.81775559 85 191 C84.68651611 192.24740967 84.68651611 192.24740967 84.36669922 193.52001953 C76.76321672 223.22201298 61.40570867 248.58040134 40.30273438 270.63427734 C39.24710557 271.74094667 38.20703086 272.86243866 37.171875 273.98828125 C10.76843321 301.92525628 -32.00324842 320.05624944 -70.16119385 321.28935242 C-73.89949633 321.36943042 -77.63594676 321.38428707 -81.375 321.375 C-82.16347321 321.37478851 -82.95194641 321.37457703 -83.76431274 321.37435913 C-97.17425838 321.33859837 -109.94144427 320.22262213 -123 317 C-123.74620605 316.82339844 -124.49241211 316.64679688 -125.26123047 316.46484375 C-154.07959423 309.46915194 -179.62157887 294.28209184 -201 274 C-201.49999512 273.53255371 -201.99999023 273.06510742 -202.51513672 272.58349609 C-236.13502256 240.98754987 -251.7666145 197.82944927 -254.1875 152.48828125 C-255.06608811 109.60219917 -238.38480674 65.84336493 -208.7734375 34.83203125 C-207.85820312 33.89746094 -206.94296875 32.96289062 -206 32 C-205.03325814 30.98363951 -204.06712305 29.96670157 -203.1015625 28.94921875 C-150.6603698 -25.65610372 -65.5529274 -35.19654219 0 0 Z M-195 35 C-195.74894531 35.67546875 -196.49789062 36.3509375 -197.26953125 37.046875 C-223.13324456 61.6990498 -241.80552201 100.6058494 -243.1262207 136.4230957 C-243.20748481 140.55363422 -243.246086 144.68127246 -243.25 148.8125 C-243.25100708 149.54821228 -243.25201416 150.28392456 -243.25305176 151.04193115 C-243.24236188 162.59486448 -242.6163343 173.71653479 -240 185 C-239.7831958 185.97477295 -239.7831958 185.97477295 -239.56201172 186.96923828 C-232.88715513 216.35191265 -217.94302831 240.80912372 -198 263 C-197.39800781 263.67546875 -196.79601562 264.3509375 -196.17578125 265.046875 C-170.99363681 291.68793461 -130.2793784 309.72101568 -93.84912109 311.12109375 C-64.56617293 311.93236811 -37.46893027 308.02144934 -11 295 C-10.36900391 294.69336426 -9.73800781 294.38672852 -9.08789062 294.07080078 C4.99978166 287.14543895 17.26057441 278.33052509 28.52783203 267.42089844 C30.0138435 265.98663861 31.51960083 264.57542224 33.02734375 263.1640625 C61.19753355 236.38337274 78.13788982 197.04053143 79.21484375 158.33984375 C79.89291218 120.67599864 70.7102205 85.60454756 48 55 C47.33097656 54.08992188 46.66195313 53.17984375 45.97265625 52.2421875 C35.06401731 38.21380345 21.91234711 25.66344365 7 16 C6.34064453 15.57138672 5.68128906 15.14277344 5.00195312 14.70117188 C-59.47917036 -26.54461826 -139.3361185 -15.20591755 -195 35 Z " fill="#ffffff" transform="translate(257,24)"/>
<path d="M0 0 C27.56113948 0.22011178 55.49625983 8.42977291 78.42578125 23.74609375 C81.16152214 25.33369447 82.96745552 26.18414453 86.125 26.3125 C88.2389473 25.2169393 88.2389473 25.2169393 90.25 23.4375 C111.39652765 7.68002783 140.9959519 0.04925107 167.125 0.1875 C167.88683594 0.18363281 168.64867187 0.17976563 169.43359375 0.17578125 C174.99820033 0.18570033 174.99820033 0.18570033 176.125 1.3125 C176.22097204 2.90672036 176.24687924 4.5052045 176.24525452 6.10231018 C176.24731651 7.6567836 176.24731651 7.6567836 176.24942017 9.24266052 C176.24582489 10.38920609 176.24222961 11.53575165 176.23852539 12.71704102 C176.23867142 13.91687622 176.23881744 15.11671143 176.2389679 16.35290527 C176.23838894 19.65235191 176.23335978 22.95173664 176.22639394 26.2511723 C176.22015973 29.69584297 176.21955655 33.14051438 176.21836853 36.58518982 C176.21525541 43.1123273 176.20704229 49.63944811 176.19701904 56.16657823 C176.1858573 63.59572016 176.1803473 71.02486286 176.17532361 78.45401108 C176.16485966 93.74018372 176.1472606 109.02633972 176.125 124.3125 C172.26968879 125.64622195 168.61190916 126.63771142 164.57226562 127.24780273 C143.54309294 130.44132342 119.61494581 137.45686706 103.125 151.3125 C103.79740723 151.12139648 104.46981445 150.93029297 105.16259766 150.73339844 C132.98164384 142.88494236 159.1798679 138.7597566 188.125 137.3125 C188.125 101.6725 188.125 66.0325 188.125 29.3125 C186.475 28.9825 184.825 28.6525 183.125 28.3125 C183.125 26.0025 183.125 23.6925 183.125 21.3125 C187.98682168 21.11802713 191.56602516 21.67230225 196.125 23.3125 C196.17167686 38.92400446 196.20696762 54.53549016 196.22862434 70.14704704 C196.23894625 77.39541834 196.25302399 84.64374634 196.27587891 91.89208984 C196.29578487 98.20818298 196.30870978 104.52424476 196.31317699 110.84036839 C196.31578913 114.18612811 196.32194761 117.53179812 196.33646011 120.87752914 C196.35089039 124.60834923 196.35298149 128.33898091 196.35205078 132.06982422 C196.35924133 133.18472229 196.36643188 134.29962036 196.37384033 135.44830322 C196.371091 136.46075104 196.36834167 137.47319885 196.36550903 138.5163269 C196.36735262 139.39940458 196.36919621 140.28248226 196.37109566 141.19231987 C196.125 143.3125 196.125 143.3125 194.125 145.3125 C191.46484375 145.65966797 191.46484375 145.65966797 188.0625 145.8046875 C186.80381104 145.8675293 185.54512207 145.93037109 184.24829102 145.99511719 C183.57661896 146.02585327 182.9049469 146.05658936 182.21292114 146.08825684 C152.36210211 147.50712734 123.80561562 152.9674299 95.76367188 163.41674805 C85.73522173 167.08456083 79.85008111 166.55536967 70.0625 162.6875 C39.83647211 151.30991934 8.92738028 146.84753399 -23.18652344 145.53027344 C-25.875 145.3125 -25.875 145.3125 -27.875 144.3125 C-28.84154719 141.41285842 -29.0092633 139.54718549 -29.02890015 136.53015137 C-29.03750061 135.54590683 -29.04610107 134.56166229 -29.05496216 133.54759216 C-29.05922211 132.46905472 -29.06348206 131.39051727 -29.06787109 130.27929688 C-29.08013733 128.57411644 -29.08013733 128.57411644 -29.09265137 126.83448792 C-29.11749832 123.06674734 -29.13401583 119.29904431 -29.1484375 115.53125 C-29.15376118 114.24693588 -29.15908485 112.96262177 -29.16456985 111.63938904 C-29.18579294 106.24520725 -29.20492488 100.85103772 -29.21619225 95.45682526 C-29.23245043 87.72452871 -29.26568691 79.99273307 -29.32259309 72.26062536 C-29.36590117 66.16893633 -29.38193053 60.07744454 -29.38832474 53.98561096 C-29.39506318 51.3923434 -29.41035175 48.79908387 -29.43421555 46.20591736 C-29.46564372 42.58545245 -29.4659374 38.96626718 -29.45849609 35.34570312 C-29.47490143 34.26716568 -29.49130676 33.18862823 -29.50820923 32.07740784 C-29.48552891 29.39386736 -29.43336017 26.9370623 -28.875 24.3125 C-25.7237636 21.44114302 -23.25577326 20.9372415 -19.0625 21.125 C-17.87720703 21.16560547 -17.87720703 21.16560547 -16.66796875 21.20703125 C-15.78044922 21.25923828 -15.78044922 21.25923828 -14.875 21.3125 C-14.875 23.6225 -14.875 25.9325 -14.875 28.3125 C-16.855 28.3125 -18.835 28.3125 -20.875 28.3125 C-20.875 64.6125 -20.875 100.9125 -20.875 138.3125 C-13.945 138.3125 -7.015 138.3125 0.125 138.3125 C4.15593942 138.61081862 8.01996895 138.93908295 12 139.5 C12.98556885 139.63164551 13.9711377 139.76329102 14.98657227 139.89892578 C30.63145442 142.10460177 45.94447367 145.69458239 61.01953125 150.39453125 C63.90494307 151.40699074 63.90494307 151.40699074 66.125 151.3125 C55.1561637 144.4895818 44.27557602 138.72615842 32.125 134.3125 C31.48804199 134.07692383 30.85108398 133.84134766 30.19482422 133.59863281 C20.54487557 130.09637343 10.82039979 128.20547192 0.66552734 126.7434082 C-0.75832275 126.52624146 -0.75832275 126.52624146 -2.2109375 126.3046875 C-3.48783447 126.12462158 -3.48783447 126.12462158 -4.79052734 125.94091797 C-6.875 125.3125 -6.875 125.3125 -8.875 122.3125 C-9.12668228 120.07485867 -9.12668228 120.07485867 -9.12896729 117.40953064 C-9.13460693 116.39859848 -9.14024658 115.38766632 -9.14605713 114.34609985 C-9.14200867 113.23793915 -9.13796021 112.12977844 -9.13378906 110.98803711 C-9.1372937 109.82038315 -9.14079834 108.65272919 -9.14440918 107.44969177 C-9.1532312 103.57968244 -9.14737594 99.70985503 -9.140625 95.83984375 C-9.14197142 93.15849071 -9.14390846 90.47714327 -9.14642334 87.79579163 C-9.15006254 82.17267881 -9.14526458 76.54961852 -9.13574219 70.92651367 C-9.12485241 64.42071768 -9.12838714 57.91504698 -9.139395 51.40925401 C-9.1484629 45.82703195 -9.14975576 40.24484765 -9.14451766 34.6626206 C-9.14139588 31.3269809 -9.14177694 27.99141322 -9.14759064 24.65577507 C-9.15264605 20.93961883 -9.14495958 17.22370636 -9.13378906 13.50756836 C-9.13783752 12.39738342 -9.14188599 11.28719849 -9.14605713 10.14337158 C-9.14041748 9.13525925 -9.13477783 8.12714691 -9.12896729 7.08848572 C-9.12821323 6.20930449 -9.12745918 5.33012327 -9.12668228 4.42430019 C-8.50044857 -0.83026309 -4.2839717 0.01292949 0 0 Z M-0.875 7.3125 C-0.875 43.9425 -0.875 80.5725 -0.875 118.3125 C11.995 121.2825 11.995 121.2825 25.125 124.3125 C43.1612407 129.98824008 61.12202066 137.3795997 75.8203125 149.54296875 C77.90511546 151.51549862 77.90511546 151.51549862 80.125 151.3125 C80.13086624 150.71194794 80.13673248 150.11139587 80.14277649 149.49264526 C80.20681217 143.23046652 80.29125822 136.96879685 80.38745117 130.70703125 C80.42066333 128.37148763 80.44870676 126.03586447 80.47143555 123.70019531 C80.50504901 120.33884855 80.55737003 116.97822831 80.61328125 113.6171875 C80.61967117 112.57634003 80.6260611 111.53549255 80.63264465 110.46310425 C80.74452495 104.92077473 81.11095047 101.0212945 84.125 96.3125 C87.01331264 102.82213127 87.59088221 108.29659509 87.63671875 115.375 C87.65466995 116.40689453 87.67262115 117.43878906 87.69111633 118.50195312 C87.74495456 121.77209484 87.77903022 125.04209281 87.8125 128.3125 C87.84569642 130.54038447 87.88018821 132.76825004 87.91601562 134.99609375 C88.00066554 140.43476685 88.06912667 145.87345918 88.125 151.3125 C88.83132568 150.85866943 89.53765137 150.40483887 90.26538086 149.93725586 C115.73981398 133.63577295 139.19636878 124.61326447 169.125 118.3125 C169.125 81.6825 169.125 45.0525 169.125 7.3125 C155.55967806 7.94897205 155.55967806 7.94897205 142.3125 9.9375 C141.49048096 10.10862305 140.66846191 10.27974609 139.8215332 10.45605469 C124.62553468 13.80889819 110.47151706 19.34972292 97.125 27.3125 C96.16078125 27.78429687 95.1965625 28.25609375 94.203125 28.7421875 C91.30339175 30.40818331 89.84906197 31.42538035 88.125 34.3125 C87.0846326 40.26853289 87.61184198 46.32565648 88.125 52.3125 C85.485 52.3125 82.845 52.3125 80.125 52.3125 C80.19460937 51.07113281 80.26421875 49.82976562 80.3359375 48.55078125 C80.39223028 46.90890842 80.44682881 45.26697689 80.5 43.625 C80.55027344 42.80837891 80.60054688 41.99175781 80.65234375 41.15039062 C80.76192914 36.63912555 80.70443214 34.94468772 77.55078125 31.50390625 C76.43112403 30.73974019 75.28769328 30.00944073 74.125 29.3125 C73.568125 28.94713135 73.01125 28.5817627 72.4375 28.20532227 C49.78329591 13.75559644 25.72211228 9.62529237 -0.875 7.3125 Z " fill="#ffffff" transform="translate(90.875,92.6875)"/>
<path d="M0 0 C3.29882049 2.94563498 6.48176302 5.99885254 9.6171875 9.1171875 C10.09784668 9.59381836 10.57850586 10.07044922 11.07373047 10.56152344 C38.11733955 37.76382818 53.10152943 75.81711755 53.68359375 114.0078125 C53.50209793 155.19947197 37.99433787 192.43353849 9.6171875 222.1171875 C8.94816406 222.849375 8.27914063 223.5815625 7.58984375 224.3359375 C-18.07960047 251.48723045 -57.18025597 265.96231597 -93.9765625 267.2421875 C-126.53316058 267.75488983 -158.57078549 258.85048148 -185.3828125 240.1171875 C-186.36121094 239.4365625 -187.33960938 238.7559375 -188.34765625 238.0546875 C-220.35090386 214.63574735 -241.70745984 180.19619349 -248.3828125 141.1171875 C-248.49850586 140.45444824 -248.61419922 139.79170898 -248.73339844 139.10888672 C-255.43418916 99.11292072 -244.3679874 59.07476633 -221.3828125 26.1171875 C-218.83940228 22.66790515 -216.17406183 19.368418 -213.3828125 16.1171875 C-212.22652344 14.75980469 -212.22652344 14.75980469 -211.046875 13.375 C-205.33646351 6.87197619 -199.269666 1.34609479 -192.3828125 -3.8828125 C-191.34640625 -4.68460938 -190.31 -5.48640625 -189.2421875 -6.3125 C-133.76691851 -48.22623721 -52.62752208 -45.66346228 0 0 Z M-187.3828125 1.1171875 C-187.9308252 1.54999023 -188.47883789 1.98279297 -189.04345703 2.42871094 C-219.16274122 26.29748087 -238.241596 61.26966068 -242.9375 99.39453125 C-246.95452071 137.43996696 -235.92819666 175.18224308 -212.4453125 205.2421875 C-187.36028425 235.82530414 -152.98671793 255.11125597 -113.5078125 259.3671875 C-76.56436307 262.88927628 -38.53303066 253.00334845 -9.41796875 229.62890625 C-4.94090181 225.92394609 -0.61416688 222.09963868 3.6171875 218.1171875 C4.27976562 217.5190625 4.94234375 216.9209375 5.625 216.3046875 C28.72722616 194.60543054 44.14884961 159.74466412 45.82226562 128.25854492 C45.94391477 124.12780159 45.95122646 119.99936336 45.9296875 115.8671875 C45.92786469 115.14007568 45.92604187 114.41296387 45.92416382 113.66381836 C45.87855585 102.85458142 45.36140187 92.62360821 42.6171875 82.1171875 C42.46685059 81.47104492 42.31651367 80.82490234 42.16162109 80.15917969 C36.13369283 54.28227893 21.99377087 31.91023735 3.6171875 13.1171875 C2.95460938 12.39273438 2.29203125 11.66828125 1.609375 10.921875 C-21.82771536 -14.13856361 -58.54468802 -27.85397626 -92.28515625 -29.16796875 C-126.46859963 -29.94042935 -160.5029207 -20.65744664 -187.3828125 1.1171875 Z " fill="#ffffff" transform="translate(273.3828125,58.8828125)"/>
<path d="M0 0 C1.98 0 3.96 0 6 0 C12.52470347 15.8196721 18.33266924 31.8586024 24 48 C24.37286133 46.96182129 24.74572266 45.92364258 25.12988281 44.85400391 C26.52960842 40.95817125 27.93170374 37.06319481 29.33447266 33.16845703 C29.93829753 31.49095101 30.5415016 29.81322138 31.14404297 28.13525391 C40.26710618 2.73289382 40.26710618 2.73289382 43 0 C45.45703125 -0.01953125 45.45703125 -0.01953125 48 1 C49.44921875 3.61328125 49.44921875 3.61328125 50.6875 7.3125 C51.18329588 8.75010276 51.67941728 10.18759328 52.17578125 11.625 C52.5927124 12.86636719 52.5927124 12.86636719 53.01806641 14.1328125 C54.17140392 17.50048923 55.38591551 20.84323928 56.60546875 24.1875 C57.29811448 26.09260917 57.99008785 27.99796108 58.68179321 29.90341187 C59.14351574 31.17499348 59.60589668 32.44633621 60.06893921 33.71743774 C60.72537717 35.52468274 61.37454373 37.33456381 62.0234375 39.14453125 C62.40419434 40.20003174 62.78495117 41.25553223 63.17724609 42.34301758 C64 45 64 45 64 48 C64.66 48 65.32 48 66 48 C66.185625 47.17435547 66.185625 47.17435547 66.375 46.33203125 C68.96270126 35.90036055 73.08660405 25.99008045 77 16 C79.31 16.33 81.62 16.66 84 17 C83.40938618 22.69885544 81.88745573 27.61164459 79.875 32.9609375 C79.41456299 34.2076976 79.41456299 34.2076976 78.94482422 35.47964478 C78.29917533 37.22381174 77.65019345 38.96674819 76.99804688 40.70849609 C75.99628394 43.38492828 75.00513473 46.06511021 74.015625 48.74609375 C73.38602852 50.44293548 72.75584126 52.13955815 72.125 53.8359375 C71.82706543 54.64002045 71.52913086 55.44410339 71.22216797 56.27255249 C69.11665773 61.88334227 69.11665773 61.88334227 68 63 C65.625 63.3125 65.625 63.3125 63 63 C60.71361273 60.42946433 59.41889044 57.91514209 58.2824707 54.69042969 C57.98238602 53.84986023 57.68230133 53.00929077 57.37312317 52.14324951 C57.06050034 51.24519592 56.7478775 50.34714233 56.42578125 49.421875 C56.09708542 48.4953009 55.76838959 47.56872681 55.42973328 46.61407471 C54.38407724 43.66165977 53.34817972 40.70592745 52.3125 37.75 C51.60415682 35.74456507 50.89517976 33.73935392 50.18554688 31.734375 C48.44967453 26.82548706 46.72179611 21.91384165 45 17 C40.85034879 26.59403997 37.26996341 36.34984615 33.75 46.1875 C32.68550472 49.16132307 31.61729885 52.13377534 30.546875 55.10546875 C30.18441681 56.12401192 30.18441681 56.12401192 29.81463623 57.16313171 C28.11273963 61.88726037 28.11273963 61.88726037 27 63 C25.00041636 63.04080783 22.99954746 63.04254356 21 63 C17.38583666 54.58257723 14.15914514 46.07937943 11.125 37.4375 C7.53424677 27.23438794 7.53424677 27.23438794 3.76171875 17.09765625 C3.26357666 15.79066772 3.26357666 15.79066772 2.75537109 14.45727539 C2.14367875 12.86310567 1.52340365 11.27219265 0.89306641 9.68530273 C-0.52149257 5.98283726 -1.20768373 3.78147853 0 0 Z " fill="#ffffff" transform="translate(130,152)"/>
<path d="M0 0 C4.65004068 3.13505567 7.92922568 7.20801597 10.51171875 12.1484375 C12.08195055 21.22088789 11.46008233 28.29482432 7.07421875 36.3984375 C8.02425781 37.20667969 8.97429687 38.01492187 9.953125 38.84765625 C11.18174879 39.92621912 12.40957232 41.00569405 13.63671875 42.0859375 C14.5793457 42.88161133 14.5793457 42.88161133 15.54101562 43.69335938 C17.2251053 45.19339553 18.73331098 46.58386141 20.07421875 48.3984375 C19.9765625 51.29296875 19.9765625 51.29296875 19.07421875 53.3984375 C16.94921875 54.2734375 16.94921875 54.2734375 14.07421875 54.3984375 C11.27921773 51.96024512 8.95710433 49.41577266 6.53515625 46.625 C4.85636951 44.72891974 4.85636951 44.72891974 2.07421875 42.3984375 C-0.60367215 42.29412866 -0.60367215 42.29412866 -2.92578125 43.3984375 C-10.14675559 45.89800554 -16.11002391 45.87411632 -23.11328125 42.7734375 C-29.26552564 39.3664177 -33.29608609 34.16291424 -35.45703125 27.5 C-36.96679805 20.73121219 -36.21651203 14.50623327 -32.92578125 8.3984375 C-25.66511735 -3.00452823 -11.98172877 -6.06615353 0 0 Z M-23.92578125 8.3984375 C-27.63164534 13.17705173 -29.35972256 17.08529592 -29.26953125 23.20703125 C-28.43495776 28.52743723 -25.09006123 32.28959942 -21.30078125 35.8984375 C-16.45717955 38.05114937 -12.14356273 38.16827411 -6.92578125 37.3984375 C-2.47431874 35.21317408 0.2630702 32.4589854 3.07421875 28.3984375 C4.79659072 23.2313216 4.72983497 18.29243992 2.94921875 13.1484375 C0.09942405 8.9687386 -3.03171096 6.02979426 -7.92578125 4.3984375 C-14.4600046 3.62598086 -18.63699347 4.45777209 -23.92578125 8.3984375 Z " fill="#ffffff" transform="translate(231.92578125,118.6015625)"/>
<path d="M0 0 C1.4540625 0.0309375 1.4540625 0.0309375 2.9375 0.0625 C2.12610062 0.56924255 1.31470123 1.07598511 0.47871399 1.5980835 C-2.3065372 4.29916221 -2.65782761 5.57627007 -2.74806213 9.38323975 C-2.73943649 10.07951477 -2.73081085 10.77578979 -2.72192383 11.49316406 C-2.73240753 12.23501953 -2.74289124 12.976875 -2.75369263 13.74121094 C-2.78243768 16.18727471 -2.77615237 18.63192263 -2.76953125 21.078125 C-2.78264674 22.77636488 -2.79795051 24.47458917 -2.81535339 26.17279053 C-2.85523427 30.63790094 -2.86539578 35.10260358 -2.86938477 39.56787109 C-2.87871045 44.12610264 -2.91612039 48.68409402 -2.95117188 53.2421875 C-3.01577901 62.18228042 -3.04899342 71.12219407 -3.0625 80.0625 C-3.3925 80.0625 -3.7225 80.0625 -4.0625 80.0625 C-4.08562376 69.77945462 -4.10341525 59.49641538 -4.11431217 49.21334934 C-4.11954093 44.4390172 -4.12663844 39.66470279 -4.13793945 34.89038086 C-4.1487686 30.28683738 -4.15477689 25.68331101 -4.15737724 21.07975578 C-4.15923144 19.31940377 -4.16285196 17.55905274 -4.16823006 15.79870796 C-4.17544086 13.34177723 -4.17649093 10.88491805 -4.17602539 8.42797852 C-4.17962067 7.69286545 -4.18321594 6.95775238 -4.18692017 6.20036316 C-4.17429984 0.08518979 -4.17429984 0.08518979 0 0 Z " fill="#ffffff" transform="translate(67.0625,114.9375)"/>
<path d="M0 0 C0.66 0.33 1.32 0.66 2 1 C0.59155282 4.21524305 -1.10344786 6.32183868 -3.625 8.75 C-4.57246094 9.67039062 -4.57246094 9.67039062 -5.5390625 10.609375 C-6.02117187 11.06828125 -6.50328125 11.5271875 -7 12 C-7.99 11.34 -8.98 10.68 -10 10 C-6.92118304 6.12948725 -3.99926986 2.97088618 0 0 Z " fill="#ffffff" transform="translate(284,275)"/>
<path d="M0 0 C1.32 0.33 2.64 0.66 4 1 C-2.15034169 8.48291572 -2.15034169 8.48291572 -6 11 C-6 6.32409833 -5.11997802 5.30350614 -2 2 C-1.34 2 -0.68 2 0 2 C0 1.34 0 0.68 0 0 Z " fill="#ffffff" transform="translate(74,65)"/>
<path d="M0 0 C-1.40844718 3.21524305 -3.10344786 5.32183868 -5.625 7.75 C-6.57246094 8.67039062 -6.57246094 8.67039062 -7.5390625 9.609375 C-8.02117188 10.06828125 -8.50328125 10.5271875 -9 11 C-9.99 10.67 -10.98 10.34 -12 10 C-10.625 8.5 -10.625 8.5 -9 7 C-8.34 7 -7.68 7 -7 7 C-6.731875 6.401875 -6.46375 5.80375 -6.1875 5.1875 C-3.37142857 0 -3.37142857 0 0 0 Z " fill="#ffffff" transform="translate(66,54)"/>
<path d="M0 0 C-0.33 1.65 -0.66 3.3 -1 5 C-2.65 5.33 -4.3 5.66 -6 6 C-3.84615385 0 -3.84615385 0 0 0 Z " fill="#ffffff" transform="translate(252,167)"/>
<path d="M0 0 C1.70884005 1.62339805 3.37446717 3.29319053 5 5 C5 5.66 5 6.32 5 7 C2.37812506 5.95125002 1.20628639 5.35068687 -0.25 2.875 C-0.4975 2.25625 -0.745 1.6375 -1 1 C-0.67 0.67 -0.34 0.34 0 0 Z " fill="#ffffff" transform="translate(202,152)"/>
</svg>
