<?xml version="1.0" encoding="UTF-8"?>
<svg version="1.1" xmlns="http://www.w3.org/2000/svg" width="446" height="450">
<path d="M0 0 C0.60440918 0.31694824 1.20881836 0.63389648 1.83154297 0.96044922 C16.23938385 8.54373027 28.30200199 18.77251786 40 30 C40.55324951 30.52770996 41.10649902 31.05541992 41.67651367 31.59912109 C46.01423279 35.82009001 49.79275724 40.29783423 53.4375 45.125 C54.00315674 45.87362305 54.56881348 46.62224609 55.15161133 47.39355469 C74.69649286 73.55771061 88.88192997 106.92882482 89.23828125 140.00390625 C89.2480751 140.7558728 89.25786896 141.50783936 89.26795959 142.28259277 C89.43979249 158.90429781 89.25676859 174.81775559 85 191 C84.68651611 192.24740967 84.68651611 192.24740967 84.36669922 193.52001953 C76.76321672 223.22201298 61.40570867 248.58040134 40.30273438 270.63427734 C39.24710557 271.74094667 38.20703086 272.86243866 37.171875 273.98828125 C10.76843321 301.92525628 -32.00324842 320.05624944 -70.16119385 321.28935242 C-73.89949633 321.36943042 -77.63594676 321.38428707 -81.375 321.375 C-82.16347321 321.37478851 -82.95194641 321.37457703 -83.76431274 321.37435913 C-97.17425838 321.33859837 -109.94144427 320.22262213 -123 317 C-123.74620605 316.82339844 -124.49241211 316.64679688 -125.26123047 316.46484375 C-154.07959423 309.46915194 -179.62157887 294.28209184 -201 274 C-201.49999512 273.53255371 -201.99999023 273.06510742 -202.51513672 272.58349609 C-233.40142153 243.55658629 -252.18746318 201.33176918 -253.9453125 158.98828125 C-253.96335938 158.00214844 -253.98140625 157.01601562 -254 156 C-254.03867188 155.00355469 -254.07734375 154.00710937 -254.1171875 152.98046875 C-255.09308175 109.8784727 -238.56160566 66.02852254 -208.7734375 34.83203125 C-207.85820312 33.89746094 -206.94296875 32.96289062 -206 32 C-205.03325814 30.98363951 -204.06712305 29.96670157 -203.1015625 28.94921875 C-150.6603698 -25.65610372 -65.5529274 -35.19654219 0 0 Z M-195 35 C-195.74894531 35.67546875 -196.49789062 36.3509375 -197.26953125 37.046875 C-223.13324456 61.6990498 -241.80552201 100.6058494 -243.1262207 136.4230957 C-243.20748481 140.55363422 -243.246086 144.68127246 -243.25 148.8125 C-243.25100708 149.54821228 -243.25201416 150.28392456 -243.25305176 151.04193115 C-243.24236188 162.59486448 -242.6163343 173.71653479 -240 185 C-239.7831958 185.97477295 -239.7831958 185.97477295 -239.56201172 186.96923828 C-232.88715513 216.35191265 -217.94302831 240.80912372 -198 263 C-197.39800781 263.67546875 -196.79601562 264.3509375 -196.17578125 265.046875 C-170.99363681 291.68793461 -130.2793784 309.72101568 -93.84912109 311.12109375 C-64.56617293 311.93236811 -37.46893027 308.02144934 -11 295 C-10.36900391 294.69336426 -9.73800781 294.38672852 -9.08789062 294.07080078 C4.99978166 287.14543895 17.26057441 278.33052509 28.52783203 267.42089844 C30.0138435 265.98663861 31.51960083 264.57542224 33.02734375 263.1640625 C61.208616 236.37283694 78.1432875 197.01932176 79.21484375 158.3046875 C79.70925737 130.62115996 75.29240025 104.9869793 63 80 C62.54004639 79.05350586 62.54004639 79.05350586 62.07080078 78.08789062 C55.14543895 64.00021834 46.33052509 51.73942559 35.42089844 40.47216797 C33.98663861 38.9861565 32.57542224 37.48039917 31.1640625 35.97265625 C3.06282877 6.41340684 -37.23198165 -9.2976141 -77.54345703 -10.92529297 C-122.37687698 -12.05410802 -162.1320131 5.35479029 -195 35 Z " fill="#22406C" transform="translate(309,26)"/>
<path d="M0 0 C27.56113948 0.22011178 55.49625983 8.42977291 78.42578125 23.74609375 C81.16152214 25.33369447 82.96745552 26.18414453 86.125 26.3125 C88.2389473 25.2169393 88.2389473 25.2169393 90.25 23.4375 C111.39652765 7.68002783 140.9959519 0.04925107 167.125 0.1875 C167.88683594 0.18363281 168.64867187 0.17976563 169.43359375 0.17578125 C174.99820033 0.18570033 174.99820033 0.18570033 176.125 1.3125 C176.22097204 2.90672036 176.24687924 4.5052045 176.24525452 6.10231018 C176.24731651 7.6567836 176.24731651 7.6567836 176.24942017 9.24266052 C176.24582489 10.38920609 176.24222961 11.53575165 176.23852539 12.71704102 C176.23867142 13.91687622 176.23881744 15.11671143 176.2389679 16.35290527 C176.23838894 19.65235191 176.23335978 22.95173664 176.22639394 26.2511723 C176.22015973 29.69584297 176.21955655 33.14051438 176.21836853 36.58518982 C176.21525541 43.1123273 176.20704229 49.63944811 176.19701904 56.16657823 C176.1858573 63.59572016 176.1803473 71.02486286 176.17532361 78.45401108 C176.16485966 93.74018372 176.1472606 109.02633972 176.125 124.3125 C172.26968879 125.64622195 168.61190916 126.63771142 164.57226562 127.24780273 C143.54309294 130.44132342 119.61494581 137.45686706 103.125 151.3125 C103.79740723 151.12139648 104.46981445 150.93029297 105.16259766 150.73339844 C132.98164384 142.88494236 159.1798679 138.7597566 188.125 137.3125 C188.125 101.6725 188.125 66.0325 188.125 29.3125 C186.475 28.9825 184.825 28.6525 183.125 28.3125 C183.125 26.0025 183.125 23.6925 183.125 21.3125 C187.98682168 21.11802713 191.56602516 21.67230225 196.125 23.3125 C196.17167686 38.92400446 196.20696762 54.53549016 196.22862434 70.14704704 C196.23894625 77.39541834 196.25302399 84.64374634 196.27587891 91.89208984 C196.29578487 98.20818298 196.30870978 104.52424476 196.31317699 110.84036839 C196.31578913 114.18612811 196.32194761 117.53179812 196.33646011 120.87752914 C196.35089039 124.60834923 196.35298149 128.33898091 196.35205078 132.06982422 C196.35924133 133.18472229 196.36643188 134.29962036 196.37384033 135.44830322 C196.371091 136.46075104 196.36834167 137.47319885 196.36550903 138.5163269 C196.36735262 139.39940458 196.36919621 140.28248226 196.37109566 141.19231987 C196.125 143.3125 196.125 143.3125 194.125 145.3125 C191.46484375 145.65966797 191.46484375 145.65966797 188.0625 145.8046875 C186.80381104 145.8675293 185.54512207 145.93037109 184.24829102 145.99511719 C183.57661896 146.02585327 182.9049469 146.05658936 182.21292114 146.08825684 C152.36210211 147.50712734 123.80561562 152.9674299 95.76367188 163.41674805 C85.73522173 167.08456083 79.85008111 166.55536967 70.0625 162.6875 C39.83647211 151.30991934 8.92738028 146.84753399 -23.18652344 145.53027344 C-25.875 145.3125 -25.875 145.3125 -27.875 144.3125 C-28.84154719 141.41285842 -29.0092633 139.54718549 -29.02890015 136.53015137 C-29.03750061 135.54590683 -29.04610107 134.56166229 -29.05496216 133.54759216 C-29.05922211 132.46905472 -29.06348206 131.39051727 -29.06787109 130.27929688 C-29.08013733 128.57411644 -29.08013733 128.57411644 -29.09265137 126.83448792 C-29.11749832 123.06674734 -29.13401583 119.29904431 -29.1484375 115.53125 C-29.15376118 114.24693588 -29.15908485 112.96262177 -29.16456985 111.63938904 C-29.18579294 106.24520725 -29.20492488 100.85103772 -29.21619225 95.45682526 C-29.23245043 87.72452871 -29.26568691 79.99273307 -29.32259309 72.26062536 C-29.36590117 66.16893633 -29.38193053 60.07744454 -29.38832474 53.98561096 C-29.39506318 51.3923434 -29.41035175 48.79908387 -29.43421555 46.20591736 C-29.46564372 42.58545245 -29.4659374 38.96626718 -29.45849609 35.34570312 C-29.47490143 34.26716568 -29.49130676 33.18862823 -29.50820923 32.07740784 C-29.48552891 29.39386736 -29.43336017 26.9370623 -28.875 24.3125 C-25.7237636 21.44114302 -23.25577326 20.9372415 -19.0625 21.125 C-17.87720703 21.16560547 -17.87720703 21.16560547 -16.66796875 21.20703125 C-15.78044922 21.25923828 -15.78044922 21.25923828 -14.875 21.3125 C-14.875 23.6225 -14.875 25.9325 -14.875 28.3125 C-16.855 28.3125 -18.835 28.3125 -20.875 28.3125 C-20.875 64.6125 -20.875 100.9125 -20.875 138.3125 C-13.945 138.3125 -7.015 138.3125 0.125 138.3125 C4.15593942 138.61081862 8.01996895 138.93908295 12 139.5 C12.98556885 139.63164551 13.9711377 139.76329102 14.98657227 139.89892578 C30.63145442 142.10460177 45.94447367 145.69458239 61.01953125 150.39453125 C63.90494307 151.40699074 63.90494307 151.40699074 66.125 151.3125 C55.1561637 144.4895818 44.27557602 138.72615842 32.125 134.3125 C31.48804199 134.07692383 30.85108398 133.84134766 30.19482422 133.59863281 C20.54487557 130.09637343 10.82039979 128.20547192 0.66552734 126.7434082 C-0.75832275 126.52624146 -0.75832275 126.52624146 -2.2109375 126.3046875 C-3.48783447 126.12462158 -3.48783447 126.12462158 -4.79052734 125.94091797 C-6.875 125.3125 -6.875 125.3125 -8.875 122.3125 C-9.12668228 120.07485867 -9.12668228 120.07485867 -9.12896729 117.40953064 C-9.13460693 116.39859848 -9.14024658 115.38766632 -9.14605713 114.34609985 C-9.14200867 113.23793915 -9.13796021 112.12977844 -9.13378906 110.98803711 C-9.1372937 109.82038315 -9.14079834 108.65272919 -9.14440918 107.44969177 C-9.1532312 103.57968244 -9.14737594 99.70985503 -9.140625 95.83984375 C-9.14197142 93.15849071 -9.14390846 90.47714327 -9.14642334 87.79579163 C-9.15006254 82.17267881 -9.14526458 76.54961852 -9.13574219 70.92651367 C-9.12485241 64.42071768 -9.12838714 57.91504698 -9.139395 51.40925401 C-9.1484629 45.82703195 -9.14975576 40.24484765 -9.14451766 34.6626206 C-9.14139588 31.3269809 -9.14177694 27.99141322 -9.14759064 24.65577507 C-9.15264605 20.93961883 -9.14495958 17.22370636 -9.13378906 13.50756836 C-9.13783752 12.39738342 -9.14188599 11.28719849 -9.14605713 10.14337158 C-9.14041748 9.13525925 -9.13477783 8.12714691 -9.12896729 7.08848572 C-9.12821323 6.20930449 -9.12745918 5.33012327 -9.12668228 4.42430019 C-8.50044857 -0.83026309 -4.2839717 0.01292949 0 0 Z M-0.875 7.3125 C-0.875 43.9425 -0.875 80.5725 -0.875 118.3125 C11.995 121.2825 11.995 121.2825 25.125 124.3125 C43.1612407 129.98824008 61.12202066 137.3795997 75.8203125 149.54296875 C77.90511546 151.51549862 77.90511546 151.51549862 80.125 151.3125 C80.13086624 150.71194794 80.13673248 150.11139587 80.14277649 149.49264526 C80.20681217 143.23046652 80.29125822 136.96879685 80.38745117 130.70703125 C80.42066333 128.37148763 80.44870676 126.03586447 80.47143555 123.70019531 C80.50504901 120.33884855 80.55737003 116.97822831 80.61328125 113.6171875 C80.61967117 112.57634003 80.6260611 111.53549255 80.63264465 110.46310425 C80.74452495 104.92077473 81.11095047 101.0212945 84.125 96.3125 C87.01331264 102.82213127 87.59088221 108.29659509 87.63671875 115.375 C87.65466995 116.40689453 87.67262115 117.43878906 87.69111633 118.50195312 C87.74495456 121.77209484 87.77903022 125.04209281 87.8125 128.3125 C87.84569642 130.54038447 87.88018821 132.76825004 87.91601562 134.99609375 C88.00066554 140.43476685 88.06912667 145.87345918 88.125 151.3125 C88.83132568 150.85866943 89.53765137 150.40483887 90.26538086 149.93725586 C115.73981398 133.63577295 139.19636878 124.61326447 169.125 118.3125 C169.125 81.6825 169.125 45.0525 169.125 7.3125 C155.55967806 7.94897205 155.55967806 7.94897205 142.3125 9.9375 C141.49048096 10.10862305 140.66846191 10.27974609 139.8215332 10.45605469 C124.62553468 13.80889819 110.47151706 19.34972292 97.125 27.3125 C96.16078125 27.78429687 95.1965625 28.25609375 94.203125 28.7421875 C91.30339175 30.40818331 89.84906197 31.42538035 88.125 34.3125 C87.0846326 40.26853289 87.61184198 46.32565648 88.125 52.3125 C85.485 52.3125 82.845 52.3125 80.125 52.3125 C80.19460937 51.07113281 80.26421875 49.82976562 80.3359375 48.55078125 C80.39223028 46.90890842 80.44682881 45.26697689 80.5 43.625 C80.55027344 42.80837891 80.60054688 41.99175781 80.65234375 41.15039062 C80.76192914 36.63912555 80.70443214 34.94468772 77.55078125 31.50390625 C76.43112403 30.73974019 75.28769328 30.00944073 74.125 29.3125 C73.568125 28.94713135 73.01125 28.5817627 72.4375 28.20532227 C49.78329591 13.75559644 25.72211228 9.62529237 -0.875 7.3125 Z " fill="#24436D" transform="translate(142.875,94.6875)"/>
<path d="M0 0 C3.29882049 2.94563498 6.48176302 5.99885254 9.6171875 9.1171875 C10.09784668 9.59381836 10.57850586 10.07044922 11.07373047 10.56152344 C38.11733955 37.76382818 53.10152943 75.81711755 53.68359375 114.0078125 C53.50209793 155.19947197 37.99433787 192.43353849 9.6171875 222.1171875 C8.94816406 222.849375 8.27914063 223.5815625 7.58984375 224.3359375 C-18.07960047 251.48723045 -57.18025597 265.96231597 -93.9765625 267.2421875 C-126.53316058 267.75488983 -158.57078549 258.85048148 -185.3828125 240.1171875 C-186.36121094 239.4365625 -187.33960938 238.7559375 -188.34765625 238.0546875 C-221.30627725 213.93663604 -242.66221059 178.2417335 -249.0625 137.98828125 C-254.62541645 99.41390689 -245.40431317 58.80239541 -222.32299805 27.22314453 C-196.78068814 -6.71924778 -162.20734498 -27.80153117 -120.3828125 -34.8828125 C-77.5243119 -40.80607494 -32.77642785 -28.43921047 0 0 Z M-187.3828125 1.1171875 C-187.9308252 1.54999023 -188.47883789 1.98279297 -189.04345703 2.42871094 C-219.16274122 26.29748087 -238.241596 61.26966068 -242.9375 99.39453125 C-246.95452071 137.43996696 -235.92819666 175.18224308 -212.4453125 205.2421875 C-187.36028425 235.82530414 -152.98671793 255.11125597 -113.5078125 259.3671875 C-76.56436307 262.88927628 -38.53303066 253.00334845 -9.41796875 229.62890625 C-4.94090181 225.92394609 -0.61416688 222.09963868 3.6171875 218.1171875 C4.27976562 217.5190625 4.94234375 216.9209375 5.625 216.3046875 C28.72722616 194.60543054 44.14884961 159.74466412 45.82226562 128.25854492 C45.94391477 124.12780159 45.95122646 119.99936336 45.9296875 115.8671875 C45.92786469 115.14007568 45.92604187 114.41296387 45.92416382 113.66381836 C45.87855585 102.85458142 45.36140187 92.62360821 42.6171875 82.1171875 C42.46685059 81.47104492 42.31651367 80.82490234 42.16162109 80.15917969 C36.13369283 54.28227893 21.99377087 31.91023735 3.6171875 13.1171875 C2.95460938 12.39273438 2.29203125 11.66828125 1.609375 10.921875 C-21.82771536 -14.13856361 -58.54468802 -27.85397626 -92.28515625 -29.16796875 C-126.46859963 -29.94042935 -160.5029207 -20.65744664 -187.3828125 1.1171875 Z " fill="#24426E" transform="translate(325.3828125,60.8828125)"/>
<path d="M0 0 C4.29 0 8.58 0 13 0 C15.73688591 7.73907123 17.73498222 15.5934556 19.6875 23.5625 C20.01073541 24.87052487 20.33430077 26.17846825 20.65820312 27.48632812 C21.44203901 30.65676881 22.22254936 33.82798864 23 37 C25.83913505 29.8396657 27.97784973 22.51811816 30.125 15.125 C30.83426128 12.68961537 31.54511533 10.25469386 32.2578125 7.8203125 C32.5686377 6.75055176 32.87946289 5.68079102 33.19970703 4.57861328 C34 2 34 2 35 0 C38.96 0 42.92 0 47 0 C50.95572285 12.26138149 54.6414743 24.56156632 58 37 C58.91906908 33.81318784 59.83519736 30.62553947 60.75 27.4375 C61.15835083 26.0148584 61.15835083 26.0148584 61.57495117 24.56347656 C63.56105316 17.61299865 65.44236012 10.64244408 67.23828125 3.640625 C68 1 68 1 69 0 C71.18639453 -0.07258946 73.37500389 -0.08373783 75.5625 -0.0625 C77.35880859 -0.04896484 77.35880859 -0.04896484 79.19140625 -0.03515625 C80.11824219 -0.02355469 81.04507813 -0.01195312 82 0 C80.31840616 10.11045242 77.11921813 19.74058783 74.0625 29.5 C73.25145022 32.10647951 72.44179725 34.71339032 71.63217163 37.3203125 C71.11472356 38.9847131 70.59621259 40.64878368 70.0765686 42.3125 C68.51134829 47.32678101 66.98733357 52.35033416 65.54077148 57.40039062 C65 59 65 59 64 60 C60.66672158 60.1424478 57.33546107 60.04222103 54 60 C50.8596627 52.49150845 48.22380198 44.87624619 45.75 37.125 C45.38648438 36.01125 45.02296875 34.8975 44.6484375 33.75 C44.30554687 32.68007813 43.96265625 31.61015625 43.609375 30.5078125 C43.29967773 29.54504395 42.98998047 28.58227539 42.67089844 27.59033203 C42 25 42 25 42 21 C41.34 21 40.68 21 40 21 C39.76410156 22.175625 39.52820312 23.35125 39.28515625 24.5625 C37.89468269 30.81534321 35.97208709 36.90604184 34.05883789 43.01416016 C33.43055444 45.0221985 32.80967465 47.03242746 32.18945312 49.04296875 C31.79209995 50.32044735 31.3943292 51.59779616 30.99609375 52.875 C30.63700928 54.02742188 30.2779248 55.17984375 29.90795898 56.3671875 C29 59 29 59 28 60 C26.14712498 60.07226502 24.29166122 60.0838122 22.4375 60.0625 C21.42558594 60.05347656 20.41367187 60.04445313 19.37109375 60.03515625 C18.19740234 60.01775391 18.19740234 60.01775391 17 60 C14.49935852 53.62797751 12.51842635 47.18660808 10.64453125 40.60546875 C10.33803146 39.53629715 10.03153168 38.46712555 9.71574402 37.36555481 C9.07293032 35.11958011 8.43178863 32.87312627 7.79223633 30.6262207 C6.81024469 27.17958422 5.8204805 23.73524344 4.83007812 20.29101562 C4.2052609 18.10430041 3.58089593 15.91745591 2.95703125 13.73046875 C2.6602095 12.69923386 2.36338776 11.66799896 2.05757141 10.60551453 C1.78696396 9.65054581 1.51635651 8.69557709 1.23754883 7.71166992 C0.99788895 6.87198166 0.75822906 6.0322934 0.51130676 5.16716003 C0 3 0 3 0 0 Z " fill="#23426B" transform="translate(6,386)"/>
<path d="M0 0 C1.98 0 3.96 0 6 0 C12.52470347 15.8196721 18.33266924 31.8586024 24 48 C24.37286133 46.96182129 24.74572266 45.92364258 25.12988281 44.85400391 C26.52960842 40.95817125 27.93170374 37.06319481 29.33447266 33.16845703 C29.93829753 31.49095101 30.5415016 29.81322138 31.14404297 28.13525391 C40.26710618 2.73289382 40.26710618 2.73289382 43 0 C45.45703125 -0.01953125 45.45703125 -0.01953125 48 1 C49.44921875 3.61328125 49.44921875 3.61328125 50.6875 7.3125 C51.18329588 8.75010276 51.67941728 10.18759328 52.17578125 11.625 C52.5927124 12.86636719 52.5927124 12.86636719 53.01806641 14.1328125 C54.17140392 17.50048923 55.38591551 20.84323928 56.60546875 24.1875 C57.29811448 26.09260917 57.99008785 27.99796108 58.68179321 29.90341187 C59.14351574 31.17499348 59.60589668 32.44633621 60.06893921 33.71743774 C60.72537717 35.52468274 61.37454373 37.33456381 62.0234375 39.14453125 C62.40419434 40.20003174 62.78495117 41.25553223 63.17724609 42.34301758 C64 45 64 45 64 48 C64.66 48 65.32 48 66 48 C66.185625 47.17435547 66.185625 47.17435547 66.375 46.33203125 C68.96270126 35.90036055 73.08660405 25.99008045 77 16 C79.31 16.33 81.62 16.66 84 17 C83.40938618 22.69885544 81.88745573 27.61164459 79.875 32.9609375 C79.41456299 34.2076976 79.41456299 34.2076976 78.94482422 35.47964478 C78.29917533 37.22381174 77.65019345 38.96674819 76.99804688 40.70849609 C75.99628394 43.38492828 75.00513473 46.06511021 74.015625 48.74609375 C73.38602852 50.44293548 72.75584126 52.13955815 72.125 53.8359375 C71.82706543 54.64002045 71.52913086 55.44410339 71.22216797 56.27255249 C69.11665773 61.88334227 69.11665773 61.88334227 68 63 C65.625 63.3125 65.625 63.3125 63 63 C60.71361273 60.42946433 59.41889044 57.91514209 58.2824707 54.69042969 C57.98238602 53.84986023 57.68230133 53.00929077 57.37312317 52.14324951 C57.06050034 51.24519592 56.7478775 50.34714233 56.42578125 49.421875 C56.09708542 48.4953009 55.76838959 47.56872681 55.42973328 46.61407471 C54.38407724 43.66165977 53.34817972 40.70592745 52.3125 37.75 C51.60415682 35.74456507 50.89517976 33.73935392 50.18554688 31.734375 C48.44967453 26.82548706 46.72179611 21.91384165 45 17 C40.85034879 26.59403997 37.26996341 36.34984615 33.75 46.1875 C32.68550472 49.16132307 31.61729885 52.13377534 30.546875 55.10546875 C30.18441681 56.12401192 30.18441681 56.12401192 29.81463623 57.16313171 C28.11273963 61.88726037 28.11273963 61.88726037 27 63 C25.00041636 63.04080783 22.99954746 63.04254356 21 63 C17.38583666 54.58257723 14.15914514 46.07937943 11.125 37.4375 C7.53424677 27.23438794 7.53424677 27.23438794 3.76171875 17.09765625 C3.26357666 15.79066772 3.26357666 15.79066772 2.75537109 14.45727539 C2.14367875 12.86310567 1.52340365 11.27219265 0.89306641 9.68530273 C-0.52149257 5.98283726 -1.20768373 3.78147853 0 0 Z " fill="#24436E" transform="translate(182,154)"/>
<path d="M0 0 C3.96 0 7.92 0 12 0 C12.33 11.22 12.66 22.44 13 34 C21.34131939 25.28600679 21.34131939 25.28600679 24.625 19.875 C26.89194025 17.09343826 28.02945703 16.99661306 31.703125 16.57421875 C35.48873052 16.49272121 39.227216 16.69760128 43 17 C42.195625 17.94875 41.39125 18.8975 40.5625 19.875 C40.02625 20.50792969 39.49 21.14085937 38.9375 21.79296875 C37.51610651 23.41209642 36.05099098 24.99311361 34.5625 26.55078125 C33.7375 27.42089844 32.9125 28.29101562 32.0625 29.1875 C31.26972656 30.00605469 30.47695312 30.82460938 29.66015625 31.66796875 C27.7707626 33.77524247 27.7707626 33.77524247 28.19873047 35.82714844 C29.1947883 38.52821935 30.5749259 40.69333529 32.16015625 43.09765625 C32.78857422 44.06380859 33.41699219 45.02996094 34.06445312 46.02539062 C35.39945804 48.05465029 36.73539996 50.08329382 38.07226562 52.11132812 C38.69939453 53.07619141 39.32652344 54.04105469 39.97265625 55.03515625 C40.55281494 55.9156665 41.13297363 56.79617676 41.73071289 57.70336914 C43 60 43 60 43 63 C37.97179497 63.63758219 33.83018288 63.63168368 29 62 C24.54803941 57.70798217 21.35415435 51.68383723 19 46 C19 45.34 19 44.68 19 44 C16.15249806 45.57521384 14.80964838 46.36365988 13 49 C12.15999301 53.66494449 12.01281064 58.2664683 12 63 C8.04 62.67 4.08 62.34 0 62 C0 41.54 0 21.08 0 0 Z " fill="#203F6B" transform="translate(120,383)"/>
<path d="M0 0 C5.85855121 4.05592007 9.58482665 8.92413327 11 16 C11.77821845 23.9617734 10.26247763 30.36912643 5.375 36.75 C-0.16847682 42.65853505 -6.08969666 44.23566107 -14.0625 44.5 C-21.96797311 44.23620057 -26.89157899 42.51385032 -32.3125 36.75 C-36.4664029 31.44160637 -38.58117347 25.77947589 -38.2890625 19.0078125 C-37.25679166 11.83771503 -33.84188326 5.22408255 -28.125 0.75 C-19.29769335 -4.19329173 -9.05139278 -4.95339957 0 0 Z M-22 11 C-24.72098528 14.9000789 -25.53818441 18.37213688 -25.359375 23.0390625 C-24.7560635 26.33104482 -23.106689 28.4719732 -21 31 C-16.97818385 33.68121076 -13.72763609 33.81344335 -9 33 C-5.9282282 31.28922026 -3.59514346 29.19028693 -2 26 C-1.44741109 20.96328793 -1.46070451 17.07859097 -3.75 12.5 C-6.78448069 9.12835479 -8.3905808 8.17493687 -12.875 7.6875 C-16.64229191 8.06422919 -18.8465203 8.8976802 -22 11 Z " fill="#23426C" transform="translate(389,402)"/>
<path d="M0 0 C4.29 0 8.58 0 13 0 C13 15.84 13 31.68 13 48 C22.57 48 32.14 48 42 48 C43 54 43 54 42 60 C28.14 60 14.28 60 0 60 C0 40.2 0 20.4 0 0 Z " fill="#24446D" transform="translate(196,386)"/>
<path d="M0 0 C-1.09068668 3.77545388 -1.9083091 6.47043472 -5 9 C-5.99 8.505 -6.98 8.01 -8 7.5 C-12.13477234 5.69896419 -15.53198453 5.76484129 -20 6 C-20.33 7.32 -20.66 8.64 -21 10 C-19.98679687 10.37511719 -18.97359375 10.75023437 -17.9296875 11.13671875 C-16.57788977 11.65303038 -15.2263403 12.16999234 -13.875 12.6875 C-12.87726563 13.05391602 -12.87726563 13.05391602 -11.859375 13.42773438 C-6.78641868 15.39226158 -1.54362809 17.91274383 1 23 C1.5811317 28.58780485 1.45156658 33.3619574 -2 38 C-7.25818459 42.32789039 -13.14127877 42.59776367 -19.734375 42.3984375 C-25.84962822 41.65231809 -30.91151584 39.39232278 -36 36 C-34.68775452 32.06326356 -33.08089673 29.77280706 -30 27 C-28.576875 27.9590625 -28.576875 27.9590625 -27.125 28.9375 C-22.67029352 31.50647184 -18.09701287 32.04659061 -13 32 C-12.01 31.505 -12.01 31.505 -11 31 C-11 29.35 -11 27.7 -11 26 C-11.70125 25.82984375 -12.4025 25.6596875 -13.125 25.484375 C-27.5 21.8125 -27.5 21.8125 -32.5 16.1875 C-34.7983037 11.30360464 -34.65706736 7.86169084 -32.875 2.8125 C-30.33073632 -1.00389552 -27.37104184 -3.05158327 -23.125 -4.75 C-14.8543323 -5.72301973 -7.03718402 -4.69145602 0 0 Z " fill="#25446D" transform="translate(441,404)"/>
<path d="M0 0 C4.65004068 3.13505567 7.92922568 7.20801597 10.51171875 12.1484375 C12.08195055 21.22088789 11.46008233 28.29482432 7.07421875 36.3984375 C8.02425781 37.20667969 8.97429687 38.01492187 9.953125 38.84765625 C11.18174879 39.92621912 12.40957232 41.00569405 13.63671875 42.0859375 C14.5793457 42.88161133 14.5793457 42.88161133 15.54101562 43.69335938 C17.2251053 45.19339553 18.73331098 46.58386141 20.07421875 48.3984375 C19.9765625 51.29296875 19.9765625 51.29296875 19.07421875 53.3984375 C16.94921875 54.2734375 16.94921875 54.2734375 14.07421875 54.3984375 C11.27921773 51.96024512 8.95710433 49.41577266 6.53515625 46.625 C4.85636951 44.72891974 4.85636951 44.72891974 2.07421875 42.3984375 C-0.60367215 42.29412866 -0.60367215 42.29412866 -2.92578125 43.3984375 C-10.14675559 45.89800554 -16.11002391 45.87411632 -23.11328125 42.7734375 C-29.26552564 39.3664177 -33.29608609 34.16291424 -35.45703125 27.5 C-36.96679805 20.73121219 -36.21651203 14.50623327 -32.92578125 8.3984375 C-25.66511735 -3.00452823 -11.98172877 -6.06615353 0 0 Z M-23.92578125 8.3984375 C-27.63164534 13.17705173 -29.35972256 17.08529592 -29.26953125 23.20703125 C-28.43495776 28.52743723 -25.09006123 32.28959942 -21.30078125 35.8984375 C-16.45717955 38.05114937 -12.14356273 38.16827411 -6.92578125 37.3984375 C-2.47431874 35.21317408 0.2630702 32.4589854 3.07421875 28.3984375 C4.79659072 23.2313216 4.72983497 18.29243992 2.94921875 13.1484375 C0.09942405 8.9687386 -3.03171096 6.02979426 -7.92578125 4.3984375 C-14.4600046 3.62598086 -18.63699347 4.45777209 -23.92578125 8.3984375 Z " fill="#23426C" transform="translate(283.92578125,120.6015625)"/>
<path d="M0 0 C4.29 0 8.58 0 13 0 C16.27842309 6.80903258 18.67053246 13.78479812 20.98095703 20.96630859 C21.95326009 24.77911538 21.95326009 24.77911538 24 28 C27.3 18.76 30.6 9.52 34 0 C38.29 0 42.58 0 47 0 C44.43319388 9.50668932 40.66035543 18.43111732 36.875 27.5 C36.222228 29.07534345 35.56988091 30.65086304 34.91796875 32.2265625 C30.22067354 43.55865293 30.22067354 43.55865293 29 46 C25.37 46 21.74 46 18 46 C13.12918071 34.84202389 8.38891835 23.64525997 3.9375 12.3125 C3.34690796 10.81674438 3.34690796 10.81674438 2.74438477 9.29077148 C2.38401123 8.36594971 2.0236377 7.44112793 1.65234375 6.48828125 C1.33257568 5.66884033 1.01280762 4.84939941 0.68334961 4.00512695 C0 2 0 2 0 0 Z " fill="#24436C" transform="translate(266,400)"/>
<path d="M0 0 C0 4.29 0 8.58 0 13 C-1.4025 13.391875 -2.805 13.78375 -4.25 14.1875 C-8.50546012 15.59260476 -10.59866882 17.09783683 -13 21 C-14.25838557 23.51677113 -14.20818973 25.41293288 -14.31640625 28.2265625 C-14.35830078 29.2578125 -14.40019531 30.2890625 -14.44335938 31.3515625 C-14.48267578 32.43179688 -14.52199219 33.51203125 -14.5625 34.625 C-14.60568359 35.71296875 -14.64886719 36.8009375 -14.69335938 37.921875 C-14.7996453 40.6144517 -14.90168057 43.30712253 -15 46 C-16.97854258 46.19397476 -18.9578648 46.38001321 -20.9375 46.5625 C-22.59072266 46.71912109 -22.59072266 46.71912109 -24.27734375 46.87890625 C-25.62505859 46.93884766 -25.62505859 46.93884766 -27 47 C-28.54501451 45.45498549 -28.12719131 44.0133978 -28.12939453 41.86328125 C-28.13254669 40.98567139 -28.13569885 40.10806152 -28.13894653 39.20385742 C-28.1369223 38.24970947 -28.13489807 37.29556152 -28.1328125 36.3125 C-28.13376923 35.33966064 -28.13472595 34.36682129 -28.13571167 33.36450195 C-28.13639358 31.303222 -28.13453853 29.24193992 -28.13037109 27.18066406 C-28.125023 24.01362312 -28.13031572 20.846724 -28.13671875 17.6796875 C-28.13605797 15.68229135 -28.13477681 13.68489529 -28.1328125 11.6875 C-28.13483673 10.73335205 -28.13686096 9.7792041 -28.13894653 8.79614258 C-28.13579437 7.91853271 -28.13264221 7.04092285 -28.12939453 6.13671875 C-28.12859894 5.36030029 -28.12780334 4.58388184 -28.12698364 3.78393555 C-28 2 -28 2 -27 1 C-24.98035801 0.92755947 -22.95832876 0.91622812 -20.9375 0.9375 C-19.28041016 0.95103516 -19.28041016 0.95103516 -17.58984375 0.96484375 C-16.73519531 0.97644531 -15.88054687 0.98804688 -15 1 C-14.67 2.98 -14.34 4.96 -14 7 C-13.51789063 6.57847656 -13.03578125 6.15695312 -12.5390625 5.72265625 C-11.90742188 5.17480469 -11.27578125 4.62695312 -10.625 4.0625 C-9.68527344 3.24458984 -9.68527344 3.24458984 -8.7265625 2.41015625 C-5.44717244 -0.26825962 -4.69102264 0 0 0 Z " fill="#26466E" transform="translate(347,399)"/>
<path d="M0 0 C1.50046875 0.00386719 1.50046875 0.00386719 3.03125 0.0078125 C4.0315625 0.00523437 5.031875 0.00265625 6.0625 0 C8.53125 0.1328125 8.53125 0.1328125 9.53125 1.1328125 C9.62920311 2.50891132 9.65923088 3.88995132 9.66064453 5.26953125 C9.66379669 6.14714111 9.66694885 7.02475098 9.67019653 7.92895508 C9.6681723 8.88310303 9.66614807 9.83725098 9.6640625 10.8203125 C9.66501923 11.79315186 9.66597595 12.76599121 9.66696167 13.76831055 C9.66764358 15.8295905 9.66578853 17.89087258 9.66162109 19.95214844 C9.656273 23.11918938 9.66156572 26.2860885 9.66796875 29.453125 C9.66730797 31.45052115 9.66602681 33.44791721 9.6640625 35.4453125 C9.66608673 36.39946045 9.66811096 37.3536084 9.67019653 38.33666992 C9.66704437 39.21427979 9.66389221 40.09188965 9.66064453 40.99609375 C9.65984894 41.77251221 9.65905334 42.54893066 9.65823364 43.34887695 C9.53125 45.1328125 9.53125 45.1328125 8.53125 46.1328125 C6.70009117 46.23132421 4.86505067 46.26253879 3.03125 46.2578125 C2.0309375 46.26039063 1.030625 46.26296875 0 46.265625 C-2.46875 46.1328125 -2.46875 46.1328125 -3.46875 45.1328125 C-3.56670311 43.75671368 -3.59673088 42.37567368 -3.59814453 40.99609375 C-3.60129669 40.11848389 -3.60444885 39.24087402 -3.60769653 38.33666992 C-3.6056723 37.38252197 -3.60364807 36.42837402 -3.6015625 35.4453125 C-3.60251923 34.47247314 -3.60347595 33.49963379 -3.60446167 32.49731445 C-3.60514358 30.4360345 -3.60328853 28.37475242 -3.59912109 26.31347656 C-3.593773 23.14643562 -3.59906572 19.9795365 -3.60546875 16.8125 C-3.60480797 14.81510385 -3.60352681 12.81770779 -3.6015625 10.8203125 C-3.60358673 9.86616455 -3.60561096 8.9120166 -3.60769653 7.92895508 C-3.60454437 7.05134521 -3.60139221 6.17373535 -3.59814453 5.26953125 C-3.59734894 4.49311279 -3.59655334 3.71669434 -3.59573364 2.91674805 C-3.39345402 0.0750135 -2.84828217 0.15323037 0 0 Z " fill="#2A4A71" transform="translate(173.46875,399.8671875)"/>
<path d="M0 0 C3.96 0 7.92 0 12 0 C12 14.85 12 29.7 12 45 C6.06 45.495 6.06 45.495 0 46 C0 30.82 0 15.64 0 0 Z " fill="#20406A" transform="translate(247,400)"/>
<path d="M0 0 C3.96 0 7.92 0 12 0 C12 14.85 12 29.7 12 45 C6.06 45.495 6.06 45.495 0 46 C0 30.82 0 15.64 0 0 Z " fill="#22426B" transform="translate(96,400)"/>
<path d="M0 0 C1.79244141 0.01740234 1.79244141 0.01740234 3.62109375 0.03515625 C5.41740234 0.04869141 5.41740234 0.04869141 7.25 0.0625 C8.17683594 0.07410156 9.10367187 0.08570313 10.05859375 0.09765625 C10.05859375 3.72765625 10.05859375 7.35765625 10.05859375 11.09765625 C7.91282738 11.12451563 5.7669673 11.14398713 3.62109375 11.16015625 C2.42613281 11.17175781 1.23117188 11.18335938 0 11.1953125 C-2.94140625 11.09765625 -2.94140625 11.09765625 -3.94140625 10.09765625 C-4.03931195 8.60027501 -4.07115489 7.09822733 -4.06640625 5.59765625 C-4.06898438 4.78296875 -4.0715625 3.96828125 -4.07421875 3.12890625 C-3.8603132 -0.1425904 -3.33729602 0.1108 0 0 Z " fill="#294771" transform="translate(249.94140625,382.90234375)"/>
<path d="M0 0 C4.29 0 8.58 0 13 0 C13 3.63 13 7.26 13 11 C8.71 11 4.42 11 0 11 C0 7.37 0 3.74 0 0 Z " fill="#1F3F6B" transform="translate(170,383)"/>
<path d="M0 0 C4.29 0 8.58 0 13 0 C13 3.63 13 7.26 13 11 C8.71 11 4.42 11 0 11 C0 7.37 0 3.74 0 0 Z " fill="#274771" transform="translate(95,383)"/>
<path d="M0 0 C1.4540625 0.0309375 1.4540625 0.0309375 2.9375 0.0625 C2.12610062 0.56924255 1.31470123 1.07598511 0.47871399 1.5980835 C-2.3065372 4.29916221 -2.65782761 5.57627007 -2.74806213 9.38323975 C-2.73943649 10.07951477 -2.73081085 10.77578979 -2.72192383 11.49316406 C-2.73240753 12.23501953 -2.74289124 12.976875 -2.75369263 13.74121094 C-2.78243768 16.18727471 -2.77615237 18.63192263 -2.76953125 21.078125 C-2.78264674 22.77636488 -2.79795051 24.47458917 -2.81535339 26.17279053 C-2.85523427 30.63790094 -2.86539578 35.10260358 -2.86938477 39.56787109 C-2.87871045 44.12610264 -2.91612039 48.68409402 -2.95117188 53.2421875 C-3.01577901 62.18228042 -3.04899342 71.12219407 -3.0625 80.0625 C-3.3925 80.0625 -3.7225 80.0625 -4.0625 80.0625 C-4.08562376 69.77945462 -4.10341525 59.49641538 -4.11431217 49.21334934 C-4.11954093 44.4390172 -4.12663844 39.66470279 -4.13793945 34.89038086 C-4.1487686 30.28683738 -4.15477689 25.68331101 -4.15737724 21.07975578 C-4.15923144 19.31940377 -4.16285196 17.55905274 -4.16823006 15.79870796 C-4.17544086 13.34177723 -4.17649093 10.88491805 -4.17602539 8.42797852 C-4.17962067 7.69286545 -4.18321594 6.95775238 -4.18692017 6.20036316 C-4.17429984 0.08518979 -4.17429984 0.08518979 0 0 Z " fill="#143866" transform="translate(119.0625,116.9375)"/>
<path d="M0 0 C0.66 0.33 1.32 0.66 2 1 C0.59155282 4.21524305 -1.10344786 6.32183868 -3.625 8.75 C-4.57246094 9.67039062 -4.57246094 9.67039062 -5.5390625 10.609375 C-6.02117187 11.06828125 -6.50328125 11.5271875 -7 12 C-7.99 11.34 -8.98 10.68 -10 10 C-6.92118304 6.12948725 -3.99926986 2.97088618 0 0 Z " fill="#1C3C68" transform="translate(336,277)"/>
<path d="M0 0 C1.32 0.33 2.64 0.66 4 1 C-2.15034169 8.48291572 -2.15034169 8.48291572 -6 11 C-6 6.32409833 -5.11997802 5.30350614 -2 2 C-1.34 2 -0.68 2 0 2 C0 1.34 0 0.68 0 0 Z " fill="#193764" transform="translate(126,67)"/>
<path d="M0 0 C-1.40844718 3.21524305 -3.10344786 5.32183868 -5.625 7.75 C-6.57246094 8.67039062 -6.57246094 8.67039062 -7.5390625 9.609375 C-8.02117187 10.06828125 -8.50328125 10.5271875 -9 11 C-9.99 10.67 -10.98 10.34 -12 10 C-10.625 8.5 -10.625 8.5 -9 7 C-8.34 7 -7.68 7 -7 7 C-6.731875 6.401875 -6.46375 5.80375 -6.1875 5.1875 C-3.37142857 0 -3.37142857 0 0 0 Z " fill="#183964" transform="translate(118,56)"/>
<path d="M0 0 C0.99 0.33 1.98 0.66 3 1 C0.69 3.64 -1.62 6.28 -4 9 C-4.66 8.67 -5.32 8.34 -6 8 C-4.55746343 4.63408134 -2.66735273 2.48952921 0 0 Z " fill="#294B77" transform="translate(152,408)"/>
<path d="M0 0 C-0.33 1.65 -0.66 3.3 -1 5 C-2.65 5.33 -4.3 5.66 -6 6 C-3.84615385 0 -3.84615385 0 0 0 Z " fill="#294A73" transform="translate(304,169)"/>
<path d="M0 0 C1.70884005 1.62339805 3.37446717 3.29319053 5 5 C5 5.66 5 6.32 5 7 C2.37812506 5.95125002 1.20628639 5.35068687 -0.25 2.875 C-0.4975 2.25625 -0.745 1.6375 -1 1 C-0.67 0.67 -0.34 0.34 0 0 Z " fill="#1C3D67" transform="translate(254,154)"/>
</svg>
